<svg width="438.533" height="438.533" xmlns="http://www.w3.org/2000/svg">

 <g>
  <title>background</title>
  <rect fill="none" id="canvas_background" height="402" width="582" y="-1" x="-1"/>
 </g>
 <g>
  <title>Layer 1</title>
  <path fill="#ffffff" id="svg_2" d="m409.133,109.203c-19.608,-33.592 -46.205,-60.189 -79.798,-79.796c-33.599,-19.606 -70.277,-29.407 -110.062,-29.407c-39.781,0 -76.47,9.801 -110.063,29.407c-33.595,19.604 -60.192,46.201 -79.8,79.796c-19.609,33.597 -29.41,70.286 -29.41,110.064c0,39.78 9.804,76.463 29.407,110.062c19.607,33.592 46.204,60.189 79.799,79.798c33.597,19.605 70.283,29.407 110.063,29.407s76.47,-9.802 110.065,-29.407c33.593,-19.602 60.189,-46.206 79.795,-79.798c19.603,-33.596 29.403,-70.284 29.403,-110.062c0.001,-39.782 -9.8,-76.472 -29.399,-110.064zm-61.954,128.336c0,4.948 -1.811,9.236 -5.428,12.847c-3.62,3.614 -7.901,5.428 -12.847,5.428l-73.091,0l0,73.084c0,4.948 -1.813,9.232 -5.428,12.854c-3.613,3.613 -7.897,5.421 -12.847,5.421l-36.543,0c-4.948,0 -9.231,-1.808 -12.847,-5.421c-3.617,-3.621 -5.426,-7.905 -5.426,-12.854l0,-73.084l-73.089,0c-4.948,0 -9.229,-1.813 -12.847,-5.428c-3.616,-3.61 -5.424,-7.898 -5.424,-12.847l0,-36.547c0,-4.948 1.809,-9.231 5.424,-12.847c3.617,-3.617 7.898,-5.426 12.847,-5.426l73.092,0l0,-73.089c0,-4.949 1.809,-9.229 5.426,-12.847c3.616,-3.616 7.898,-5.424 12.847,-5.424l36.547,0c4.948,0 9.233,1.809 12.847,5.424c3.614,3.617 5.428,7.898 5.428,12.847l0,73.089l73.084,0c4.948,0 9.232,1.809 12.847,5.426c3.617,3.615 5.428,7.898 5.428,12.847l0,36.547z"/>
 </g>
</svg>